<?xml version="1.0" encoding="utf-8"?>
<!-- Generator: Adobe Illustrator 19.1.0, SVG Export Plug-In . SVG Version: 6.00 Build 0)  -->
<svg version="1.1"
	 id="svg3930" sodipodi:docname="White_bag.svg" inkscape:version="0.48.1 " xmlns:dc="http://purl.org/dc/elements/1.1/" xmlns:svg="http://www.w3.org/2000/svg" xmlns:cc="http://creativecommons.org/ns#" xmlns:inkscape="http://www.inkscape.org/namespaces/inkscape" xmlns:sodipodi="http://sodipodi.sourceforge.net/DTD/sodipodi-0.dtd" xmlns:rdf="http://www.w3.org/1999/02/22-rdf-syntax-ns#"
	 xmlns="http://www.w3.org/2000/svg" xmlns:xlink="http://www.w3.org/1999/xlink" x="0px" y="0px" viewBox="-71 69 356 364"
	 style="enable-background:new -71 69 356 364;" xml:space="preserve">
<style type="text/css">
	.st0{fill:none;stroke:#D6639D;stroke-width:4.8722;stroke-linecap:round;}
	.st1{fill:url(#rect3832_1_);}
	.st2{fill:url(#rect3776_1_);}
	.st3{fill:url(#path3774_1_);}
	.st4{fill:url(#path3150_1_);}
	.st5{fill:#F2F2F2;}
	.st6{fill:url(#rect2985_1_);}
	.st7{fill:none;stroke:#D6639D;stroke-width:5;stroke-linecap:round;}
	.st8{fill:#D6639D;}
	.st9{font-family:'SavoyeLetPlain';}
	.st10{font-size:175px;}
</style>
<title  id="title5282">White bag for shopping. Bolsa blanca de compras.</title>
<sodipodi:namedview  inkscape:window-maximized="1" inkscape:window-y="-8" inkscape:window-x="54" inkscape:window-height="746" inkscape:window-width="1304" fit-margin-bottom="0" fit-margin-right="0" inkscape:document-units="in" inkscape:pageshadow="2" inkscape:current-layer="layer1" inkscape:pageopacity="0.0" id="namedview3934" fit-margin-left="0" fit-margin-top="0" units="px" showgrid="false" inkscape:cy="303" inkscape:cx="6" inkscape:zoom="1" borderopacity="1.0" bordercolor="#666666" pagecolor="#ffffff">
	</sodipodi:namedview>
<g id="layer1" transform="translate(-160.05159,-101.8239)" inkscape:groupmode="layer" inkscape:label="Layer 1">
	<g id="g4735">
		<path id="path3858" sodipodi:nodetypes="cc" inkscape:connector-curvature="0" class="st0" d="M230.4,274.1
			c-25.6-116.4,92.1-132.7,64.1-11.6"/>
		
			<linearGradient id="rect3832_1_" gradientUnits="userSpaceOnUse" x1="956.0527" y1="600.0167" x2="695.9518" y2="631.7363" gradientTransform="matrix(1 0 0 1 -555.3876 -378.5383)">
			<stop  offset="0" style="stop-color:#E6E6E6"/>
			<stop  offset="0.4355" style="stop-color:#F9F9F9"/>
			<stop  offset="1" style="stop-color:#E6E6E6"/>
		</linearGradient>
		<path id="rect3832" sodipodi:nodetypes="czcccccc" inkscape:connector-curvature="0" class="st1" d="M89.7,238.4
			c0,0,134,0.8,187.4-4.6c53.4-5.4,133-27.9,133-27.9l-0.5,9.4l35.4,0.2l-159.6,41l-190,8.6L89.7,238.4z"/>
		
			<linearGradient id="rect3776_1_" gradientUnits="userSpaceOnUse" x1="679.6395" y1="867.6779" x2="645.7745" y2="616.0135" gradientTransform="matrix(1 0 0 1 -555.3876 -378.5383)">
			<stop  offset="0" style="stop-color:#E6E6E6"/>
			<stop  offset="0.7168" style="stop-color:#ECECEC"/>
			<stop  offset="1" style="stop-color:#F9F9F9"/>
		</linearGradient>
		<path id="rect3776" sodipodi:nodetypes="ccccccccc" inkscape:connector-curvature="0" class="st2" d="M89.7,238.4l40.9,7.2
			l-3.5,10.6l15.4,113.4l-6.9,122.6c6.4,5.8-12.2,8.6-16.4,12.3l-30.7,8.9c14.3-29.9,11.4-82.4,11.3-125.7
			C99.8,356.2,89.7,238.4,89.7,238.4L89.7,238.4z"/>
		
			<linearGradient id="path3774_1_" gradientUnits="userSpaceOnUse" x1="925.6961" y1="610.6525" x2="866.2352" y2="676.9192" gradientTransform="matrix(0.4025 -2.046352e-02 2.046352e-02 0.4025 -256.8488 271.229)">
			<stop  offset="0" style="stop-color:#ECECEC"/>
			<stop  offset="1" style="stop-color:#F9F9F9"/>
		</linearGradient>
		
			<path id="path3774" sodipodi:nodetypes="ccccccc" inkscape:connector-curvature="0" inkscape:transform-center-x="8.9372285" inkscape:transform-center-y="0.28954054" class="st3" d="
			M125.7,534.8l-18.8-10.3l-18.2-11.1l31.1-9.9l14.2-10l-1.5,22.5L125.7,534.8z"/>
		
			<linearGradient id="path3150_1_" gradientUnits="userSpaceOnUse" x1="964.6452" y1="598.5774" x2="1001.3041" y2="593.2773" gradientTransform="matrix(1 0 0 1 -555.3302 -378.791)">
			<stop  offset="0" style="stop-color:#F9F9F9"/>
			<stop  offset="0.4355" style="stop-color:#F2F2F2"/>
			<stop  offset="1" style="stop-color:#ECECEC"/>
		</linearGradient>
		<path id="path3150" sodipodi:nodetypes="cccc" inkscape:connector-curvature="0" class="st4" d="M409.6,215.2l-0.3,9.1l36.4-9.5
			L409.6,215.2z"/>
		<path id="path3188" sodipodi:nodetypes="cccc" inkscape:connector-curvature="0" class="st5" d="M130.5,245.6l0.3,9.7l-5.2-0.2
			L130.5,245.6z"/>
		
			<radialGradient id="rect2985_1_" cx="289.7162" cy="403.4228" r="160.0054" gradientTransform="matrix(-1.9574 -1.4681 0.375 -0.5 861.3741 1121.8834)" gradientUnits="userSpaceOnUse">
			<stop  offset="0" style="stop-color:#F2F2F2"/>
			<stop  offset="1" style="stop-color:#F9F9F9"/>
		</radialGradient>
		<path id="rect2985" sodipodi:nodetypes="czczcccczc" inkscape:connector-curvature="0" class="st6" d="M125.6,254.8
			c0,0,102.5,1.9,155.8-4.8s164.2-35.2,164.2-35.2s-9.1,86.6-10.4,129s2.4,125.4,2.4,125.4l8,25.6l-320,40l6.6-19.1
			c0,0,6.1-75.2,5-118.6S125.6,254.8,125.6,254.8L125.6,254.8z"/>
		<path id="path3853" sodipodi:nodetypes="cc" inkscape:connector-curvature="0" class="st7" d="M249.1,273
			c-26.3-119.4,94.6-136.2,65.8-11.9"/>
	</g>
</g>
<text transform="matrix(0.9918 -0.128 0.128 0.9918 91.1114 335.2772)" class="st8 st9 st10">S</text>
</svg>
